<?xml version="1.0" encoding="UTF-8"?>
<svg id="Layer_2" data-name="Layer 2" xmlns="http://www.w3.org/2000/svg" viewBox="0 0 1080 1080">
  <defs>
    <style>
      .cls-1 {
        isolation: isolate;
      }

      .cls-2 {
        fill: #020208;
      }

      .cls-3 {
        fill: #d6ff3d;
      }

      .cls-4 {
        fill: #fff;
      }
    </style>
  </defs>
  <g id="Layer_1" data-name="Layer 1">
    <g>
      <rect class="cls-2" width="1080" height="1080"/>
      <g>
        <g class="cls-1">
          <path class="cls-4" d="M248.13,591.82l-24.25-103.64h34.65l9.04,44.29c.2.8.45,2.03.75,3.69.3,1.66.65,3.46,1.05,5.42.4,1.96.75,3.74,1.05,5.35h.6c.2-.9.43-1.98.68-3.24.25-1.25.5-2.53.75-3.84.25-1.3.5-2.61.75-3.92.25-1.3.48-2.46.68-3.46l8.89-44.29h32.84l9.49,44.29c.2,1,.48,2.36.83,4.07.35,1.71.73,3.49,1.13,5.35.4,1.86.75,3.54,1.05,5.05h.6c.2-1,.43-2.13.68-3.39.25-1.25.48-2.53.68-3.84.2-1.3.43-2.58.68-3.84.25-1.25.48-2.38.68-3.39l8.44-44.29h33.14l-24.25,103.64h-36.61l-10.24-48.51c-.2-1.3-.5-2.84-.9-4.59-.4-1.76-.8-3.54-1.21-5.35-.4-1.81-.75-3.36-1.05-4.67h-.6c-.3,1.21-.63,2.69-.98,4.44-.35,1.76-.73,3.52-1.13,5.27-.4,1.76-.75,3.39-1.05,4.9l-10.24,48.51h-36.61Z"/>
          <path class="cls-4" d="M385.36,591.82v-103.64h89.63v24.86h-56.34v14.31h48.21v23.8h-48.21v15.82h57.39v24.86h-90.69Z"/>
          <path class="cls-4" d="M493.67,591.82v-103.64h64.93c7.73,0,14.18,1.56,19.36,4.67,5.17,3.11,9.06,7.18,11.67,12.2,2.61,5.02,3.92,10.45,3.92,16.27,0,6.63-1.56,12.53-4.67,17.7-3.11,5.17-7.33,9.32-12.65,12.43l20.34,40.37h-37.36l-15.82-34.8h-16.42v34.8h-33.29ZM526.96,533.97h23.35c2.61,0,4.82-1.03,6.63-3.09,1.81-2.06,2.71-4.79,2.71-8.21,0-2.11-.4-3.97-1.21-5.57-.81-1.61-1.91-2.89-3.31-3.84-1.41-.95-3.01-1.43-4.82-1.43h-23.35v22.14Z"/>
          <path class="cls-4" d="M662.39,593.63c-11.75,0-21.79-2.01-30.13-6.03-8.34-4.02-14.71-10.02-19.13-18-4.42-7.98-6.63-17.85-6.63-29.6s2.21-21.74,6.63-29.68c4.42-7.93,10.79-13.91,19.13-17.93,8.33-4.02,18.38-6.03,30.13-6.03s21.94,2.01,30.28,6.03c8.33,4.02,14.71,9.99,19.13,17.93,4.42,7.93,6.63,17.83,6.63,29.68s-2.21,21.62-6.63,29.6c-4.42,7.98-10.8,13.99-19.13,18-8.34,4.02-18.43,6.03-30.28,6.03ZM662.39,568.77c3.62,0,6.8-.58,9.57-1.73,2.76-1.15,5.07-2.79,6.93-4.9,1.86-2.11,3.24-4.64,4.14-7.61.9-2.96,1.36-6.2,1.36-9.72v-9.64c0-3.51-.45-6.75-1.36-9.72-.9-2.96-2.29-5.5-4.14-7.61-1.86-2.11-4.17-3.74-6.93-4.9-2.76-1.15-5.95-1.73-9.57-1.73s-6.8.58-9.57,1.73c-2.76,1.16-5.05,2.79-6.85,4.9-1.81,2.11-3.16,4.65-4.07,7.61-.9,2.96-1.36,6.2-1.36,9.72v9.64c0,3.52.45,6.76,1.36,9.72.9,2.96,2.26,5.5,4.07,7.61,1.81,2.11,4.09,3.74,6.85,4.9,2.76,1.16,5.95,1.73,9.57,1.73Z"/>
          <path class="cls-4" d="M736.35,591.82v-103.64h33.29v77.13h53.18v26.51h-86.47Z"/>
        </g>
        <rect class="cls-3" x="829.58" y="565.29" width="26.54" height="26.54"/>
      </g>
    </g>
  </g>
</svg>