<?xml version="1.0" encoding="UTF-8"?>
<svg id="Layer_2" data-name="Layer 2" xmlns="http://www.w3.org/2000/svg" viewBox="0 0 1080 1080">
  <defs>
    <style>
      .cls-1 {
        fill: #d6ff3d;
      }

      .cls-2 {
        fill: #fff;
      }
    </style>
  </defs>
  <g id="Layer_1" data-name="Layer 1">
    <g>
      <rect class="cls-2" width="1080" height="1080"/>
      <g>
        <path d="M338.92,707.49l-78.39-334.98h111.98l29.21,143.14c.65,2.6,1.46,6.57,2.43,11.93.97,5.36,2.11,11.2,3.41,17.53,1.29,6.33,2.43,12.1,3.41,17.28h1.95c.65-2.92,1.38-6.41,2.19-10.47.81-4.06,1.62-8.19,2.43-12.42.81-4.21,1.62-8.44,2.43-12.66.81-4.21,1.54-7.95,2.19-11.2l28.73-143.14h106.14l30.67,143.14c.65,3.25,1.54,7.63,2.68,13.15,1.13,5.52,2.35,11.28,3.65,17.28,1.29,6.01,2.43,11.44,3.41,16.31h1.95c.65-3.24,1.38-6.89,2.19-10.96.81-4.05,1.54-8.19,2.19-12.42.65-4.21,1.38-8.35,2.19-12.42.81-4.05,1.54-7.71,2.19-10.95l27.27-143.14h107.11l-78.39,334.98h-118.31l-33.11-156.78c-.65-4.21-1.63-9.17-2.92-14.85-1.3-5.68-2.6-11.44-3.9-17.28-1.3-5.84-2.43-10.87-3.41-15.09h-1.95c-.97,3.9-2.03,8.69-3.17,14.36-1.14,5.68-2.36,11.37-3.65,17.04-1.3,5.68-2.43,10.95-3.41,15.82l-33.11,156.78h-118.31Z"/>
        <path class="cls-1" d="M716.25,707.49v-96.89h103.22v96.89h-103.22Z"/>
      </g>
    </g>
  </g>
</svg>