<?xml version="1.0" encoding="UTF-8"?>
<svg id="Layer_3" data-name="Layer 3" xmlns="http://www.w3.org/2000/svg" viewBox="0 0 1027.24 174.26">
  <defs>
    <style>
      .cls-1 {
        isolation: isolate;
      }

      .cls-2 {
        fill: #d6ff3d;
      }

      .cls-3 {
        fill: #fff;
      }
    </style>
  </defs>
  <g id="Layer_1" data-name="Layer 1">
    <g>
      <g class="cls-1">
        <path class="cls-3" d="M39.41,171.33L0,2.94h56.29l14.69,71.96c.33,1.31.73,3.3,1.22,6,.49,2.69,1.06,5.63,1.71,8.81.65,3.18,1.22,6.08,1.71,8.69h.98c.33-1.47.69-3.22,1.1-5.26.41-2.04.81-4.12,1.22-6.24.41-2.12.81-4.24,1.22-6.36.41-2.12.77-4,1.1-5.63L95.7,2.94h53.36l15.42,71.96c.32,1.63.77,3.84,1.35,6.61.57,2.78,1.18,5.67,1.84,8.69.65,3.02,1.22,5.75,1.71,8.2h.98c.32-1.63.69-3.46,1.1-5.51.41-2.04.77-4.12,1.1-6.24.33-2.12.69-4.2,1.1-6.24.41-2.04.77-3.87,1.1-5.51L188.46,2.94h53.85l-39.41,168.39h-59.47l-16.64-78.81c-.33-2.12-.82-4.61-1.47-7.46-.65-2.85-1.31-5.75-1.96-8.69-.65-2.94-1.22-5.46-1.71-7.59h-.98c-.49,1.96-1.02,4.37-1.59,7.22-.57,2.86-1.19,5.71-1.84,8.57-.65,2.86-1.22,5.51-1.71,7.95l-16.64,78.81h-59.47Z"/>
        <path class="cls-3" d="M262.37,171.33V2.94h145.63v40.38h-91.54v23.25h78.32v38.67h-78.32v25.7h93.25v40.38h-147.34Z"/>
        <path class="cls-3" d="M438.35,171.33V2.94h105.49c12.56,0,23.04,2.53,31.45,7.59,8.4,5.06,14.72,11.67,18.97,19.82,4.24,8.16,6.36,16.97,6.36,26.43,0,10.77-2.53,20.36-7.59,28.76-5.06,8.41-11.91,15.14-20.56,20.19l33.04,65.59h-60.7l-25.7-56.54h-26.68v56.54h-54.09ZM492.44,77.34h37.94c4.24,0,7.83-1.67,10.77-5.02,2.94-3.34,4.41-7.79,4.41-13.34,0-3.43-.65-6.44-1.96-9.06-1.31-2.61-3.1-4.69-5.38-6.24-2.29-1.55-4.9-2.33-7.83-2.33h-37.94v35.98Z"/>
        <path class="cls-3" d="M712.47,174.26c-19.09,0-35.41-3.26-48.95-9.79-13.54-6.52-23.91-16.28-31.08-29.25-7.18-12.97-10.77-29-10.77-48.09s3.59-35.32,10.77-48.22c7.18-12.89,17.54-22.6,31.08-29.13,13.54-6.52,29.86-9.79,48.95-9.79s35.65,3.27,49.2,9.79c13.54,6.53,23.9,16.24,31.08,29.13,7.18,12.89,10.77,28.96,10.77,48.22s-3.59,35.12-10.77,48.09c-7.18,12.97-17.54,22.72-31.08,29.25-13.54,6.53-29.94,9.79-49.2,9.79ZM712.47,133.88c5.87,0,11.05-.94,15.54-2.81,4.49-1.87,8.24-4.53,11.26-7.95,3.02-3.43,5.26-7.55,6.73-12.36,1.47-4.81,2.2-10.07,2.2-15.79v-15.66c0-5.71-.73-10.97-2.2-15.79-1.47-4.81-3.71-8.93-6.73-12.36-3.02-3.43-6.77-6.08-11.26-7.95-4.49-1.87-9.67-2.81-15.54-2.81s-11.06.94-15.54,2.81c-4.49,1.88-8.2,4.53-11.14,7.95-2.94,3.43-5.14,7.55-6.61,12.36-1.47,4.81-2.2,10.08-2.2,15.79v15.66c0,5.71.73,10.98,2.2,15.79,1.47,4.81,3.67,8.93,6.61,12.36,2.94,3.43,6.65,6.08,11.14,7.95,4.49,1.88,9.67,2.81,15.54,2.81Z"/>
        <path class="cls-3" d="M832.64,171.33V2.94h54.09v125.31h86.4v43.08h-140.49Z"/>
      </g>
      <rect class="cls-2" x="984.11" y="128.23" width="43.13" height="43.13"/>
    </g>
  </g>
</svg>