<?xml version="1.0"?>

<svg xmlns="http://www.w3.org/2000/svg" viewBox="0 0 24 26" fill="currentColor">
  <path d="M17.05 13.4c-.03-2.83 2.31-4.2 2.41-4.27-1.32-1.93-3.37-2.2-4.1-2.22-1.74-.18-3.4 1.03-4.29 1.03-.89 0-2.25-1-3.7-.98-1.9.03-3.66 1.1-4.64 2.81-1.98 3.43-.5 8.5 1.4 11.3.93 1.37 2.04 2.9 3.5 2.85 1.4-.06 1.93-.91 3.63-.91 1.7 0 2.18.91 3.66.88 1.52-.02 2.48-1.39 3.4-2.77.78-1.16 1.42-2.36 1.84-3.7-2.78-1.05-2.93-3.97-2.93-4.02zm-2.86-9.42c.77-.93 1.29-2.23 1.15-3.53-1.11.04-2.46.74-3.25 1.67-.71.82-1.34 2.13-1.17 3.41 1.24.1 2.5-.62 3.27-1.55z"></path>
</svg>