<?xml version="1.0"?>

<svg xmlns="http://www.w3.org/2000/svg" viewBox="0 0 24 24">
  <path fill="#FFC107" d="M21.8 10.4H12v3.7h5.6c-.5 2.6-2.7 4-5.6 4-3.4 0-6.1-2.7-6.1-6.1S8.6 5.9 12 5.9c1.5 0 2.9.5 4 1.5l2.7-2.7C16.9 3.1 14.6 2.2 12 2.2 6.6 2.2 2.2 6.6 2.2 12s4.4 9.8 9.8 9.8c5.4 0 9.8-4.4 9.8-9.8 0-.5 0-1-.2-1.6z"></path>
  <path fill="#FF3D00" d="M3.3 7.3l3 2.2c.8-2 2.7-3.6 5.1-3.6 1.5 0 2.9.5 4 1.5l2.7-2.7C16.9 3.1 14.6 2.2 12 2.2 8 2.2 4.6 4.3 3.3 7.3z"></path>
  <path fill="#4CAF50" d="M12 21.8c2.6 0 4.9-.9 6.7-2.4l-3.1-2.5c-1 .7-2.2 1.1-3.6 1.1-2.9 0-5.1-1.4-5.6-4l-3.1 2.4c1.3 3 4.7 5.4 8.7 5.4z"></path>
  <path fill="#1976D2" d="M21.8 10.4H12v3.7h5.6c-.3 1.2-1 2.3-1.9 3l3.1 2.5c1.9-1.7 3.2-4.4 3.2-7.6 0-.5 0-1-.2-1.6z"></path>
</svg>